<?xml version="1.0" standalone="no"?><!DOCTYPE svg PUBLIC "-//W3C//DTD SVG 1.1//EN" "http://www.w3.org/Graphics/SVG/1.1/DTD/svg11.dtd"><svg t="1724858399975" class="icon" viewBox="0 0 1024 1024" version="1.1" xmlns="http://www.w3.org/2000/svg" p-id="7941" width="13" height="13" xmlns:xlink="http://www.w3.org/1999/xlink"><path d="M579.306667 244.992a315.2 315.2 0 0 1-60.117334-53.184c-12.586667 14.506667-32.597333 34.282667-60.288 53.184-51.712 35.2-110.890667 54.613333-176.405333 57.898667v232.917333c0 8.490667 1.109333 18.389333 3.413333 29.397333 0 0 28.501333 179.413333 233.28 272.085334 0 0 148.693333-56.298667 214.016-213.973334 15.189333-34.709333 22.4-65.813333 22.4-87.509333V302.890667c-65.493333-3.285333-124.714667-22.698667-176.298666-57.898667z" fill="#FFFFFF" p-id="7942"></path><path d="M519.104 837.290667c-80.405333-34.773333-138.602667-91.093333-177.194667-147.498667-20.906667-6.997333-41.002667-14.506667-60.202666-22.186667 8.106667 15.189333 17.194667 30.4 27.306666 45.013334 35.690667 51.882667 99.690667 122.581333 201.792 164.48a22.016 22.016 0 0 0 16.597334 0.106666c74.304-30.613333 128.405333-76.309333 166.101333-118.997333a1055.509333 1055.509333 0 0 1-51.413333-3.797333 405.226667 405.226667 0 0 1-122.986667 82.88zM891.306667 553.194667c-7.402667-6.613333-15.914667-13.290667-25.514667-19.904-19.498667-13.696-43.2-27.392-70.293333-40.597334v-207.189333a21.973333 21.973333 0 0 0-21.802667-22.101333c-64.490667-0.298667-122.304-17.6-171.904-51.413334-38.485333-26.197333-59.2-53.888-64.682667-61.781333a21.973333 21.973333 0 0 0-18.005333-9.514667c-7.104 0-13.909333 3.498667-18.005333 9.386667-5.504 7.914667-26.304 35.626667-64.789334 61.824-49.706667 33.792-107.605333 51.093333-172.010666 51.413333a22.101333 22.101333 0 0 0-21.802667 22.08v92.586667c-12.394667 0.810667-24.106667 1.92-35.093333 3.413333-24.704 3.306667-45.696 8.32-62.805334 14.912-29.013333 11.306667-45.888 27.093333-50.304 46.997334-4.202667 18.986667 3.626667 39.402667 22.997334 60.8l0.106666 0.085333c0.405333 0.426667 0.704 0.810667 1.109334 1.216 18.090667 19.392 45.504 39.189333 81.493333 58.88 2.410667 1.301333 4.906667 2.709333 7.402667 4.010667 13.397333 7.104 27.797333 14.101333 42.88 20.8 4.416 16.597333 10.624 33.92 18.325333 51.413333 17.792 7.68 36.586667 15.082667 56.298667 22.186667-10.602667-18.389333-19.2-36.48-25.813334-53.504 55.317333 21.12 117.909333 39.701333 183.808 54.314666 74.005333 16.384 146.410667 26.389333 211.093334 29.482667a427.029333 427.029333 0 0 1-34.090667 42.901333c17.088 1.408 33.792 2.410667 49.898667 2.901334a480.256 480.256 0 0 0 31.402666-44.8 641.536 641.536 0 0 0 40.106667-1.386667c33.493333-2.218667 61.888-6.912 84.586667-14.016 5.013333-1.6 9.706667-3.2 14.101333-4.992a123.413333 123.413333 0 0 0 22.698667-11.797333 101.141333 101.141333 0 0 0-12.096-16.106667c-6.613333 4.394667-14.912 8.32-24.704 11.712-21.696 7.594667-50.901333 12.885333-85.888 15.189333-8.704 0.597333-17.706667 1.002667-27.008 1.194667 26.794667-48.789333 42.602667-99.093333 42.602666-138.090667v-20.693333c27.989333 14.186667 51.797333 28.8 70.293334 43.093333 4.394667 3.413333 8.405333 6.698667 12.202666 10.090667 16.298667 14.506667 34.794667 35.797333 30.592 54.997333-0.682667 3.008-1.898667 5.802667-3.584 8.618667 5.098667 5.482667 9.386667 10.986667 12.8 16.384a49.28 49.28 0 0 0 10.282667-20.693333c5.013333-22.997333-7.381333-48-36.906667-74.304z m-681.706667-6.613334l-2.197333-1.173333c-33.92-18.709333-59.605333-37.717333-75.52-55.317333-0.085333 0-0.085333 0.106667-0.192 0.106666a76.928 76.928 0 0 1-11.882667-16.106666c-5.610667-9.685333-7.808-18.581333-6.016-26.581334 4.8-21.909333 39.018667-38.314667 93.610667-46.016 10.88-1.493333 22.613333-2.688 35.093333-3.498666v137.813333c0 9.002667 0.896 18.688 2.496 28.8a683.818667 683.818667 0 0 1-35.392-18.005333z m546.005333-10.773333c0 31.701333-15.509333 83.882667-48.810666 137.685333-66.389333-2.304-141.994667-12.373333-219.498667-29.589333-71.296-15.786667-138.602667-36.202667-196.586667-59.52-5.504-18.773333-8.213333-35.477333-8.213333-48.576V302.890667c65.493333-3.285333 124.693333-22.698667 176.405333-57.898667a317.525333 317.525333 0 0 0 60.288-53.184c12.608 14.506667 32.512 34.282667 60.117334 53.184 51.584 35.2 110.784 54.613333 176.298666 57.898667v232.917333z" fill="#005BFF" p-id="7943"></path><path d="M242.197333 443.2c-40.106667 2.496-73.002667 8.704-97.6 18.304-9.6 3.690667-17.898667 8-24.789333 12.693333 2.986667 5.205333 7.082667 10.496 12.096 16.106667 21.205333-13.994667 59.498667-23.509333 110.293333-26.901333v-20.202667z" fill="#06F3FF" p-id="7944"></path><path d="M119.68 474.090667c1.514667 2.709333 5.717333 9.706667 11.925333 16.106666 0.085333 0 0.085333-0.106667 0.213334-0.106666a106.816 106.816 0 0 1-12.117334-16c0.106667 0 0.106667 0 0 0z m798.122667 174.101333a128.853333 128.853333 0 0 0-12.8-16.384 195.349333 195.349333 0 0 0-13.696-13.397333c-22.826667-20.309333-56.106667-41.216-97.002667-61.12-0.405333 2.709333-2.197333 14.72-3.413333 20.693333 36.8 18.325333 66.602667 37.205333 87.104 55.424 4.202667 3.690667 8.512 7.893333 12.501333 12.288 4.608 5.013333 8.810667 10.496 12.096 16.106667 5.12 8.704 7.893333 17.898667 6.016 26.602666-5.802667 26.090667-53.909333 44.586667-128.618667 49.493334-21.781333 1.408-45.397333 1.706667-70.186666 0.896a990.528 990.528 0 0 1-49.92-2.901334c-54.186667-4.48-112.789333-13.504-172.586667-26.794666-57.685333-12.8-112.704-28.586667-162.304-46.506667a971.178667 971.178667 0 0 1-56.298667-22.186667 739.498667 739.498667 0 0 1-58.986666-28.586666c-65.706667-35.925333-101.504-73.024-95.786667-99.114667 0.682667-2.986667 1.877333-5.909333 3.584-8.597333l-0.106667-0.106667a103.253333 103.253333 0 0 1-12.8-16.298667 49.258667 49.258667 0 0 0-10.304 20.693334c-4.288 19.413333 3.904 40.32 24.32 62.101333 18.090667 19.413333 45.482667 39.210667 81.493334 58.901333a774.336 774.336 0 0 0 81.792 38.186667c19.093333 7.722667 39.210667 15.125333 60.202666 22.208a1371.008 1371.008 0 0 0 140.906667 38.912c54.784 12.096 108.693333 20.8 159.189333 25.685333 17.6 1.706667 34.794667 3.008 51.413334 3.818667 14.698667 0.682667 28.885333 1.088 42.688 1.088 15.594667 0 30.72-0.490667 45.013333-1.386667 40.896-2.709333 74.090667-9.109333 98.688-19.008 27.690667-11.2 43.904-26.709333 48.213333-46.101333 3.093333-14.208-0.426667-29.098667-10.410666-44.586667z" fill="#06F3FF" p-id="7945"></path><path d="M117.397333 504.106667s-0.106667 0-0.106666-0.106667c0 0 0.106667 0 0.106666 0.106667z" fill="#06F3FF" p-id="7946"></path><path d="M431.061333 529.066667c-0.32 0.234667-0.554667 0.448-0.874666 0.661333l-1.109334 0.682667c-0.341333 0.213333-0.64 0.362667-1.002666 0.554666l-0.981334 0.554667-1.109333 0.576a27.178667 27.178667 0 0 1-1.109333 0.426667c-0.362667 0.149333-0.725333 0.213333-1.109334 0.341333-0.362667 0.128-0.832 0.448-1.216 0.448-0.362667 0-0.704 0.213333-1.088 0.213333-0.384 0-0.725333 0.341333-1.109333 0.341334-0.384 0-0.832 0.128-1.216 0.128-0.405333 0-0.832 0.213333-1.216 0.213333-0.405333 0-0.725333 0.106667-1.109333 0.106667h-2.432c-0.384 0-0.810667-0.106667-1.216-0.106667-0.384 0-0.704 0.106667-1.109334 0.106667h-1.216c-0.384 0-0.810667-0.106667-1.216-0.106667-0.384 0-0.810667-0.106667-1.216-0.106667-0.384 0-0.704-0.213333-1.088-0.213333-0.405333 0-0.853333-0.234667-1.216-0.234667-0.405333 0-0.725333-0.213333-1.109333-0.213333-0.384 0-0.853333-0.213333-1.216-0.341333-0.384-0.128-0.746667-0.32-1.109333-0.448a26.026667 26.026667 0 0 1-1.109334-0.448c-0.362667-0.170667-0.746667-0.277333-1.109333-0.448a31.530667 31.530667 0 0 1-2.090667-1.130667l-1.002666-0.661333a24.533333 24.533333 0 0 1-0.981334-0.661334c-0.32-0.256-0.682667-0.426667-1.002666-0.682666-0.298667-0.298667-0.597333-0.704-0.874667-1.002667-0.298667-0.298667-0.512-0.576-0.789333-0.896l-0.874667-1.002667a27.328 27.328 0 0 1-0.768-1.002666c-0.256-0.341333-0.426667-0.661333-0.661333-1.002667l-0.661334-1.130667-0.661333-1.109333c-0.213333-0.384-0.384-0.746667-0.554667-1.130667l-0.554666-1.109333c-0.170667-0.384-0.405333-0.725333-0.554667-1.109333a31.274667 31.274667 0 0 1-0.426667-1.237334c-0.149333-0.405333-0.213333-0.832-0.341333-1.237333-0.128-0.405333-0.341333-0.810667-0.341333-1.237333 0-0.405333-0.32-0.810667-0.32-1.216 0-0.426667-0.213333-0.810667-0.213334-1.237334 0-0.426667-0.128-0.917333-0.128-1.344L362.666667 513.088c0 0.725333 0.213333 1.386667 0.213333 2.133333 0 0.704 0.213333 1.386667 0.341333 2.112l0.426667 2.24c0.170667 0.704 0.256 1.408 0.448 2.133334l0.661333 2.112c0.213333 0.682667 0.426667 1.322667 0.682667 2.005333 0.234667 0.682667 0.490667 1.344 0.768 2.005333 0.277333 0.682667 0.682667 1.365333 0.981333 2.026667 0.32 0.64 0.64 1.365333 1.002667 2.005333 0.341333 0.64 0.64 1.28 1.002667 1.92 0.362667 0.597333 0.810667 1.152 1.216 1.770667 0.384 0.597333 0.768 1.194667 1.194666 1.792 0.426667 0.576 0.874667 1.216 1.344 1.792a43.392 43.392 0 0 0 2.88 3.242667c0.490667 0.512 1.002667 1.066667 1.536 1.557333 0.64 0.490667 1.344 0.896 1.984 1.344l1.984 1.344c0.682667 0.426667 1.301333 0.832 2.005334 1.216a49.429333 49.429333 0 0 0 4.181333 2.133333c0.725333 0.32 1.493333 0.704 2.218667 1.002667 0.725333 0.298667 1.472 0.512 2.218666 0.789333 0.725333 0.256 1.450667 0.554667 2.197334 0.768 0.768 0.234667 1.557333 0.384 2.325333 0.576l2.325333 0.554667c0.768 0.149333 1.536 0.32 2.304 0.426667 0.789333 0.149333 1.557333 0.362667 2.346667 0.362666 0.768 0 1.514667 0.213333 2.304 0.213334h10.496c1.130667 0 2.304-0.213333 3.413333-0.213334 1.152 0 2.197333-0.106667 3.328-0.234666 1.130667-0.128 2.304-0.362667 3.413334-0.554667 1.130667-0.192 2.218667-0.426667 3.328-0.682667 1.109333-0.234667 2.218667-0.469333 3.306666-0.768a73.898667 73.898667 0 0 0 6.4-2.133333l1.237334-0.554667 1.322666-0.554666 1.109334-0.554667 1.216-0.682667c0.384-0.213333 0.725333-0.533333 1.109333-0.789333 0.362667-0.234667 0.853333-0.512 1.194667-0.768l1.002666-0.789333 1.109334-0.896c0.341333-0.298667 0.64-0.469333 0.981333-0.789334 0.341333-0.298667 0.682667-0.682667 1.002667-1.002666s0.682667-0.554667 1.002666-0.896l0.874667-1.002667 0.896-1.109333c0.277333-0.362667 0.597333-0.64 0.874667-1.002667 0.277333-0.362667 0.512-0.746667 0.768-1.130667l0.789333-1.109333 0.64-1.130667c0.213333-0.362667 0.362667-0.853333 0.554667-1.216 0.213333-0.384 0.490667-0.725333 0.682666-1.130666l0.533334-1.109334c0.192-0.384 0.298667-0.832 0.448-1.237333 0.170667-0.384 0.426667-0.810667 0.554666-1.216 0.149333-0.426667 0.213333-0.832 0.341334-1.237333 0.128-0.426667 0.32-0.810667 0.426666-1.237334 0.128-0.405333 0.341333-0.810667 0.341334-1.216 0-0.426667 0.32-0.810667 0.32-1.237333 0-0.426667 0.213333-0.917333 0.213333-1.344 0-0.426667 0.234667-0.789333 0.234667-1.216 0-0.426667 0.213333-0.810667 0.213333-1.237333 0-0.426667 0.128-0.917333 0.128-1.344 0-0.426667 0.106667-0.917333 0.106667-1.344 0-0.426667 0.106667-0.789333 0.106666-1.216v-1.344c0-0.426667-0.106667-0.810667-0.106666-1.237334v-1.344c0-0.426667-0.106667-0.917333-0.106667-1.344 0-0.426667-0.213333-0.789333-0.213333-1.216 0-0.426667-0.234667-0.917333-0.234667-1.344 0-0.426667-0.213333-0.810667-0.213333-1.237333 0-0.426667-0.341333-0.810667-0.341334-1.237333 0-0.426667-0.213333-0.810667-0.32-1.216-0.128-0.426667-0.213333-0.938667-0.341333-1.344l-0.426667-1.237334-0.448-1.109333c-0.170667-0.405333-0.277333-0.853333-0.448-1.237333a42.453333 42.453333 0 0 0-1.109333-2.346667l-0.661333-1.109333c-0.426667-0.661333-0.768-1.386667-1.216-2.026667-0.448-0.64-0.938667-1.173333-1.429334-1.770667a36.309333 36.309333 0 0 0-3.2-3.477333c-0.576-0.533333-1.173333-0.96-1.770666-1.450667-0.618667-0.490667-1.152-1.002667-1.770667-1.450666-0.64-0.448-1.344-0.832-1.984-1.237334a34.325333 34.325333 0 0 0-2.005333-1.109333 122.538667 122.538667 0 0 0-6.506667-2.901333 116.352 116.352 0 0 0-6.528-2.346667c-2.218667-0.746667-4.48-1.514667-6.741333-2.133333a117.397333 117.397333 0 0 0-9.813334-2.133334c-1.002667-0.213333-2.026667-0.405333-2.986666-0.64-1.002667-0.277333-1.92-0.618667-2.88-0.917333-0.981333-0.298667-1.92-0.554667-2.88-0.896a65.066667 65.066667 0 0 1-5.632-2.346667c-0.917333-0.426667-1.770667-0.981333-2.666667-1.450666-0.874667-0.469333-1.770667-0.938667-2.645333-1.450667-0.128 0-0.298667-0.213333-0.426667-0.341333l-0.448-0.32c-0.128-0.128-0.213333-0.32-0.341333-0.448l-0.32-0.341334c-0.128-0.149333-0.341333-0.298667-0.341334-0.448 0-0.149333-0.32-0.298667-0.32-0.448 0-0.149333-0.341333-0.298667-0.341333-0.448 0-0.149333-0.213333-0.405333-0.213333-0.554666 0-0.170667-0.213333-0.277333-0.213334-0.448 0-0.170667-0.234667-0.277333-0.234666-0.448 0-0.170667-0.106667-0.384-0.106667-0.554667 0-0.192-0.106667-0.384-0.106667-0.576 0-0.170667-0.128-0.256-0.128-0.426667 0-0.192-0.106667-0.384-0.106666-0.576 0-0.170667-0.106667-0.362667-0.106667-0.554666v-0.554667-0.554667c0-0.213333 0.106667-0.384 0.106667-0.554666v-0.576c0-0.170667 0.106667-0.362667 0.106666-0.554667 0-0.192 0.128-0.384 0.128-0.554667 0-0.192 0.213333-0.384 0.213334-0.554666 0-0.192 0.213333-0.384 0.213333-0.576 0-0.170667 0.213333-0.277333 0.213333-0.426667 0-0.170667 0.341333-0.426667 0.341334-0.576 0-0.149333 0.213333-0.277333 0.213333-0.426667 0-0.170667 0.213333-0.32 0.341333-0.469333 0.106667-0.149333 0.32-0.298667 0.426667-0.426667l0.341333-0.341333 0.448-0.448 0.426667-0.341333c0.170667-0.106667 0.298667-0.341333 0.448-0.341334l0.896-0.554666 1.002667-0.554667c0.32-0.170667 0.64-0.405333 0.981333-0.554667l1.002667-0.448c0.341333-0.149333 0.64-0.32 0.981333-0.448 0.362667-0.149333 0.768-0.213333 1.109333-0.341333 0.362667-0.128 0.64-0.426667 1.002667-0.426667 0.341333 0 0.746667-0.234667 1.109333-0.234666 0.341333 0 0.64-0.341333 0.981334-0.341334 0.362667 0 0.746667-0.213333 1.109333-0.213333 0.362667 0 0.746667-0.128 1.109333-0.128 0.362667 0 0.725333-0.106667 1.109334-0.106667 0.362667 0 0.725333-0.106667 1.088-0.106666 0.384 0 0.746667-0.128 1.109333-0.128h1.109333c0.362667 0 0.725333 0.128 1.109334 0.128 0.341333 0 0.64-0.128 0.981333-0.128h2.112c0.341333 0 0.64 0.128 0.981333 0.128s0.661333 0.106667 1.002667 0.106666 0.768 0.213333 1.109333 0.213334 0.64 0.128 0.981334 0.128 0.682667 0.32 1.002666 0.32c0.341333 0 0.661333 0.213333 1.002667 0.213333 0.32 0 0.554667 0.234667 0.874667 0.362667l1.002666 0.32 0.981334 0.448 0.896 0.448 0.874666 0.448 0.896 0.554666 0.874667 0.576 0.661333 0.661334c0.213333 0.213333 0.448 0.533333 0.661334 0.789333 0.213333 0.234667 0.469333 0.426667 0.661333 0.661333l0.661333 0.789334c0.213333 0.256 0.384 0.512 0.554667 0.789333 0.192 0.256 0.384 0.490667 0.554667 0.768 0.170667 0.277333 0.298667 0.618667 0.448 0.896l0.426666 0.896 0.448 0.896 0.341334 0.896c0.128 0.298667 0.32 0.576 0.32 0.896 0 0.298667 0.341333 0.576 0.341333 0.896 0 0.298667 0.213333 0.682667 0.213333 1.002667s0.213333 0.576 0.213334 0.896c0 0.32 0.128 0.682667 0.128 1.002666s0.106667 0.682667 0.106666 1.002667l24.64-1.109333v-0.896-1.002667c0-0.32-0.106667-0.682667-0.106666-1.002667 0-0.341333-0.106667-0.576-0.106667-0.917333 0-0.298667-0.106667-0.682667-0.106667-1.002667s-0.128-0.576-0.128-0.874666c0-0.32-0.106667-0.704-0.106666-1.024s-0.213333-0.576-0.213334-0.896c0-0.298667-0.213333-0.682667-0.213333-1.002667 0-0.298667-0.213333-0.576-0.213333-0.896 0-0.298667-0.341333-0.576-0.341334-0.896 0-0.298667-0.213333-0.576-0.213333-0.896 0-0.298667-0.341333-0.704-0.341333-1.002667 0-0.298667-0.213333-0.597333-0.341334-0.896l-0.32-0.896-0.448-0.896-0.341333-0.768a49.578667 49.578667 0 0 0-0.426667-0.896l-0.448-0.896c-0.149333-0.277333-0.384-0.512-0.554666-0.789333-0.170667-0.277333-0.277333-0.618667-0.426667-0.896l-0.576-0.768-0.554667-0.789333a32.448 32.448 0 0 0-0.533333-0.789334c-0.213333-0.256-0.362667-0.512-0.554667-0.768l-0.554666-0.682666a56.064 56.064 0 0 0-0.661334-0.789334l-0.661333-0.64-0.661333-0.810666a39.253333 39.253333 0 0 0-0.661334-0.661334l-0.682666-0.682666c-0.213333-0.213333-0.426667-0.341333-0.64-0.554667a48.384 48.384 0 0 0-1.898667-1.344c-0.64-0.426667-1.322667-0.917333-1.984-1.322667-0.64-0.426667-1.322667-0.746667-1.984-1.130666-0.682667-0.362667-1.301333-0.768-1.984-1.109334a49.877333 49.877333 0 0 0-4.202667-1.92c-0.725333-0.277333-1.493333-0.512-2.218666-0.768a45.269333 45.269333 0 0 0-2.090667-0.661333c-0.746667-0.213333-1.578667-0.384-2.325333-0.576-0.746667-0.170667-1.450667-0.405333-2.218667-0.554667-0.746667-0.149333-1.450667-0.213333-2.197333-0.341333-0.768-0.106667-1.557333-0.32-2.325334-0.32-0.768 0-1.557333-0.213333-2.325333-0.213333-0.746667 0-1.429333-0.128-2.197333-0.128-0.768 0-1.557333 0.106667-2.325334 0.106666-0.768 0-1.557333 0.128-2.325333 0.128h-3.093333c-1.024 0-2.069333 0.106667-3.093334 0.106667-1.024 0-1.962667 0.213333-2.986666 0.32a65.024 65.024 0 0 0-3.093334 0.448c-1.002667 0.192-1.984 0.341333-2.986666 0.576a60.074667 60.074667 0 0 0-8.832 2.773333l-1.109334 0.469334-1.109333 0.554666-1.088 0.554667-1.109333 0.661333-1.109334 0.682667-1.002666 0.661333-0.981334 0.789334a31.36 31.36 0 0 0-1.002666 0.789333c-0.32 0.256-0.682667 0.490667-0.981334 0.768l-0.896 0.789333-0.874666 0.896c-0.298667 0.298667-0.618667 0.704-0.896 1.002667a30.997333 30.997333 0 0 0-0.768 0.896l-0.768 1.002667-0.789334 1.002666c-0.213333 0.341333-0.533333 0.661333-0.768 1.024-0.426667 0.64-0.832 1.322667-1.216 2.005334-0.362667 0.682667-0.64 1.408-0.981333 2.133333a31.381333 31.381333 0 0 0-1.664 4.352c-0.213333 0.746667-0.490667 1.472-0.661333 2.24-0.170667 0.746667-0.213333 1.557333-0.341334 2.346667-0.106667 0.768-0.32 1.450667-0.32 2.218666 0 0.789333-0.106667 1.578667-0.106666 2.346667v1.792c0 0.298667 0.106667 0.704 0.106666 1.024v0.874667c0 0.298667 0.106667 0.597333 0.106667 0.896 0 0.298667 0.106667 0.597333 0.106667 0.896 0 0.298667 0.213333 0.597333 0.213333 0.896 0 0.298667 0.128 0.490667 0.128 0.789333 0 0.298667 0.213333 0.597333 0.213333 0.896 0 0.298667 0.213333 0.597333 0.213334 0.896 0 0.277333 0.213333 0.597333 0.213333 0.896 0 0.277333 0.234667 0.597333 0.234667 0.896 0 0.277333 0.341333 0.490667 0.341333 0.768 0 0.277333 0.32 0.618667 0.32 0.896 0 0.277333 0.213333 0.512 0.341333 0.789333l0.32 0.896 0.341334 0.768 0.426666 0.789334c0.149333 0.277333 0.32 0.512 0.448 0.789333l0.448 0.768 0.426667 0.789333c0.170667 0.256 0.298667 0.533333 0.448 0.789334 0.170667 0.256 0.384 0.426667 0.554667 0.661333l0.554666 0.789333 0.554667 0.661334c0.192 0.234667 0.362667 0.554667 0.554667 0.789333l0.554666 0.682667 0.661334 0.64 0.554666 0.576 0.661334 0.682666c0.213333 0.213333 0.426667 0.341333 0.661333 0.554667 0.213333 0.213333 0.426667 0.469333 0.661333 0.661333 1.024 0.768 2.026667 1.429333 3.093334 2.133334 1.066667 0.704 2.218667 1.493333 3.328 2.133333 1.088 0.64 2.176 1.194667 3.306666 1.770667 1.130667 0.576 2.261333 1.173333 3.413334 1.685333a66.154667 66.154667 0 0 0 10.837333 3.690667c1.237333 0.298667 2.496 0.554667 3.754667 0.768 10.24 2.581333 16.896 4.373333 19.776 5.376 0.426667 0.128 0.810667 0.192 1.216 0.341333 0.426667 0.149333 0.810667 0.384 1.216 0.554667 0.426667 0.170667 0.853333 0.362667 1.216 0.554666l1.109333 0.661334c0.384 0.234667 0.746667 0.426667 1.109333 0.682666 0.362667 0.256 0.64 0.512 0.981334 0.789334 0.362667 0.256 0.789333 0.597333 1.109333 0.896 0.32 0.277333 0.576 0.576 0.896 0.874666 0.213333 0.256 0.469333 0.512 0.64 0.789334 0.213333 0.277333 0.298667 0.490667 0.469333 0.789333 0.149333 0.277333 0.405333 0.576 0.533334 0.896 0.149333 0.298667 0.341333 0.682667 0.341333 1.002667s0.213333 0.576 0.213333 0.896c0 0.32 0.213333 0.682667 0.213334 1.002666s0.128 0.682667 0.128 1.002667v1.898667c0 0.298667-0.106667 0.490667-0.106667 0.789333 0 0.277333-0.128 0.597333-0.128 0.896 0 0.277333-0.213333 0.618667-0.213333 0.896 0 0.277333-0.213333 0.490667-0.213334 0.768 0 0.277333-0.213333 0.64-0.213333 0.896 0 0.277333-0.213333 0.533333-0.341333 0.789333l-0.341334 0.789334-0.426666 0.768-0.448 0.682666c-0.170667 0.234667-0.277333 0.554667-0.426667 0.789334l-0.576 0.661333c-0.170667 0.213333-0.341333 0.448-0.554667 0.661333-0.192 0.213333-0.448 0.362667-0.64 0.576l-0.682666 0.554667-0.64 0.554667z m113.6 0l-1.002666 0.661333c-0.32 0.213333-0.64 0.469333-1.002667 0.682667-0.32 0.213333-0.64 0.362667-0.981333 0.554666l-1.109334 0.554667c-0.362667 0.192-0.64 0.405333-0.981333 0.576a27.178667 27.178667 0 0 1-1.109333 0.426667c-0.384 0.149333-0.746667 0.213333-1.109334 0.341333-0.384 0.128-0.853333 0.448-1.216 0.448-0.384 0-0.725333 0.213333-1.109333 0.213333-0.384 0-0.832 0.341333-1.216 0.341334-0.384 0-0.704 0.128-1.109333 0.128-0.384 0-0.810667 0.213333-1.216 0.213333-0.384 0-0.810667 0.106667-1.216 0.106667h-2.304c-0.405333 0-0.832-0.106667-1.216-0.106667-0.405333 0-0.832 0.106667-1.216 0.106667h-1.109334c-0.405333 0-0.810667-0.106667-1.216-0.106667-0.405333 0-0.832-0.106667-1.216-0.106667-0.405333 0-0.725333-0.213333-1.109333-0.213333-0.384 0-0.832-0.234667-1.216-0.234667-0.384 0-0.832-0.213333-1.216-0.213333-0.384 0-0.725333-0.213333-1.109333-0.341333l-1.088-0.448a26.026667 26.026667 0 0 1-1.109334-0.448c-0.362667-0.170667-0.746667-0.277333-1.109333-0.448a29.76 29.76 0 0 1-2.090667-1.130667c-0.362667-0.213333-0.661333-0.426667-1.002666-0.661333a24.533333 24.533333 0 0 1-1.002667-0.661334c-0.32-0.256-0.682667-0.426667-0.981333-0.682666-0.32-0.298667-0.597333-0.704-0.896-1.002667-0.277333-0.298667-0.597333-0.576-0.874667-0.896-0.277333-0.32-0.512-0.682667-0.768-1.002667a29.973333 29.973333 0 0 1-0.789333-1.002666l-0.64-1.002667c-0.256-0.362667-0.576-0.768-0.789334-1.130667-0.213333-0.362667-0.341333-0.746667-0.554666-1.109333-0.213333-0.384-0.469333-0.746667-0.661334-1.130667-0.192-0.384-0.277333-0.725333-0.426666-1.109333-0.192-0.384-0.426667-0.725333-0.576-1.109333a31.274667 31.274667 0 0 1-0.426667-1.237334c-0.149333-0.405333-0.213333-0.832-0.341333-1.237333-0.106667-0.405333-0.32-0.810667-0.32-1.237333 0-0.405333-0.341333-0.810667-0.341334-1.216 0-0.426667-0.213333-0.810667-0.213333-1.237334 0-0.426667-0.128-0.917333-0.128-1.344l-23.957333 2.474667c0 0.725333 0.213333 1.386667 0.213333 2.133333 0 0.704 0.213333 1.386667 0.32 2.112 0.128 0.725333 0.192 1.514667 0.341333 2.24 0.149333 0.704 0.362667 1.408 0.554667 2.133334l0.661333 2.112 0.661334 2.005333c0.256 0.682667 0.490667 1.344 0.768 2.005333 0.298667 0.682667 0.576 1.365333 0.896 2.026667 0.32 0.64 0.64 1.365333 0.981333 2.005333l1.109333 1.92c0.384 0.597333 0.810667 1.152 1.216 1.770667l1.216 1.792c0.426667 0.576 0.853333 1.216 1.322667 1.792l1.450667 1.664c0.469333 0.554667 0.917333 1.066667 1.429333 1.578667 0.512 0.512 1.024 1.066667 1.557333 1.557333 0.618667 0.490667 1.322667 0.896 1.984 1.344 0.64 0.448 1.194667 0.917333 1.877334 1.344 0.661333 0.426667 1.408 0.832 2.090666 1.216a49.429333 49.429333 0 0 0 4.202667 2.133333c0.725333 0.32 1.493333 0.704 2.218667 1.002667 0.725333 0.298667 1.450667 0.512 2.197333 0.789333 0.746667 0.256 1.450667 0.554667 2.218667 0.768 0.746667 0.234667 1.557333 0.384 2.325333 0.576l2.304 0.554667c0.789333 0.149333 1.557333 0.32 2.346667 0.426667 0.768 0.149333 1.514667 0.362667 2.304 0.362666 0.789333 0 1.536 0.213333 2.325333 0.213334h10.496c1.130667 0 2.282667-0.213333 3.413333-0.213334 1.130667 0 2.197333-0.106667 3.328-0.234666 1.109333-0.128 2.304-0.362667 3.413334-0.554667 1.130667-0.192 2.218667-0.426667 3.328-0.682667 1.088-0.234667 2.218667-0.469333 3.306666-0.768a73.898667 73.898667 0 0 0 6.4-2.133333c0.426667-0.170667 0.810667-0.362667 1.216-0.554667l1.216-0.554666c0.426667-0.213333 0.832-0.341333 1.216-0.554667 0.405333-0.213333 0.853333-0.448 1.216-0.682667 0.384-0.213333 0.725333-0.533333 1.109334-0.789333 0.384-0.234667 0.746667-0.512 1.109333-0.768l1.109333-0.789333 1.109334-0.896c0.341333-0.298667 0.64-0.469333 0.981333-0.789334 0.341333-0.298667 0.682667-0.682667 1.002667-1.002666s0.682667-0.554667 0.981333-0.896c0.32-0.32 0.597333-0.64 0.896-1.002667 0.298667-0.341333 0.597333-0.768 0.874667-1.109333 0.298667-0.362667 0.618667-0.64 0.896-1.002667l0.768-1.130667c0.256-0.362667 0.533333-0.725333 0.768-1.109333l0.661333-1.130667c0.213333-0.362667 0.362667-0.853333 0.554667-1.216 0.213333-0.384 0.469333-0.725333 0.661333-1.130666l0.554667-1.109334c0.170667-0.384 0.277333-0.832 0.426666-1.237333l0.469334-1.216 0.426666-1.237333c0.149333-0.426667 0.32-0.810667 0.448-1.237334 0.128-0.405333 0.32-0.810667 0.32-1.216 0-0.426667 0.341333-0.810667 0.341334-1.237333 0-0.426667 0.213333-0.917333 0.213333-1.344 0-0.426667 0.213333-0.789333 0.213333-1.216 0-0.426667 0.234667-0.810667 0.234667-1.237333 0-0.426667 0.106667-0.917333 0.106667-1.344 0-0.426667 0.106667-0.917333 0.106666-1.344v-1.216c0-0.426667 0.128-0.917333 0.128-1.344 0-0.426667-0.128-0.810667-0.128-1.237334v-1.344c0-0.426667-0.213333-0.917333-0.213333-1.344 0-0.426667-0.106667-0.789333-0.106667-1.216 0-0.426667-0.213333-0.917333-0.213333-1.344 0-0.426667-0.213333-0.810667-0.213333-1.237333 0-0.426667-0.341333-0.810667-0.341334-1.237333 0-0.426667-0.213333-0.810667-0.341333-1.216l-0.32-1.344c-0.128-0.426667-0.298667-0.832-0.448-1.237334l-0.426667-1.109333c-0.170667-0.405333-0.298667-0.853333-0.469333-1.237333a33.365333 33.365333 0 0 0-1.088-2.346667l-0.661333-1.109333c-0.426667-0.661333-0.768-1.386667-1.216-2.026667-0.469333-0.64-0.96-1.173333-1.450667-1.770667a36.352 36.352 0 0 0-3.2-3.477333c-0.576-0.533333-1.173333-0.96-1.770667-1.450667a35.285333 35.285333 0 0 0-3.754666-2.688 33.685333 33.685333 0 0 0-1.984-1.109333 121.024 121.024 0 0 0-6.528-2.901333 115.669333 115.669333 0 0 0-6.506667-2.346667c-2.24-0.746667-4.48-1.514667-6.741333-2.133333a117.397333 117.397333 0 0 0-9.834667-2.133334c-1.002667-0.213333-2.005333-0.405333-2.986667-0.64-0.981333-0.277333-1.92-0.618667-2.88-0.917333-0.96-0.298667-1.92-0.554667-2.858666-0.896a66.026667 66.026667 0 0 1-5.653334-2.346667c-0.917333-0.426667-1.749333-0.981333-2.645333-1.450666-0.896-0.469333-1.792-0.938667-2.645333-1.450667-0.149333 0-0.32-0.213333-0.448-0.341333l-0.426667-0.32c-0.149333-0.128-0.213333-0.32-0.341333-0.448l-0.341334-0.341334c-0.106667-0.149333-0.32-0.298667-0.32-0.448 0-0.149333-0.341333-0.298667-0.341333-0.448 0-0.149333-0.32-0.298667-0.32-0.448 0-0.149333-0.213333-0.405333-0.213333-0.554666 0-0.170667-0.234667-0.277333-0.234667-0.448 0-0.170667-0.213333-0.277333-0.213333-0.448 0-0.170667-0.128-0.384-0.128-0.554667 0-0.192-0.213333-0.384-0.213334-0.576 0-0.170667-0.106667-0.256-0.106666-0.426667v-0.576c0-0.170667-0.106667-0.362667-0.106667-0.554666v-0.554667-0.554667-0.554666c0-0.213333 0.106667-0.384 0.106667-0.576 0-0.170667 0.106667-0.362667 0.106666-0.554667 0-0.192 0.106667-0.384 0.106667-0.554667 0-0.192 0.213333-0.384 0.213333-0.554666 0-0.192 0.213333-0.384 0.213334-0.576 0-0.170667 0.234667-0.277333 0.234666-0.426667 0-0.170667 0.213333-0.426667 0.213334-0.576 0-0.149333 0.341333-0.277333 0.341333-0.426667 0-0.170667 0.213333-0.32 0.341333-0.469333l0.32-0.426667c0.128-0.149333 0.32-0.213333 0.448-0.341333l0.426667-0.448 0.341333-0.341333c0.149333-0.106667 0.405333-0.341333 0.554667-0.341334l0.896-0.554666a26.453333 26.453333 0 0 1 0.981333-0.554667c0.32-0.170667 0.661333-0.405333 1.002667-0.554667 0.32-0.170667 0.64-0.298667 0.981333-0.448 0.341333-0.149333 0.64-0.32 1.002667-0.448 0.341333-0.149333 0.64-0.213333 1.002667-0.341333 0.341333-0.128 0.746667-0.426667 1.088-0.426667 0.362667 0 0.746667-0.234667 1.109333-0.234666 0.362667 0 0.64-0.341333 1.002667-0.341334s0.746667-0.213333 1.109333-0.213333c0.362667 0 0.725333-0.128 1.088-0.128 0.384 0 0.746667-0.106667 1.109333-0.106667 0.362667 0 0.746667-0.106667 1.109334-0.106666 0.362667 0 0.725333-0.128 1.109333-0.128h1.109333c0.362667 0 0.725333 0.128 1.088 0.128 0.341333 0 0.661333-0.128 1.002667-0.128h2.090667c0.341333 0 0.661333 0.128 1.002666 0.128s0.64 0.106667 1.002667 0.106666c0.341333 0 0.768 0.213333 1.109333 0.213334 0.32 0 0.64 0.128 0.981334 0.128s0.661333 0.32 1.002666 0.32c0.32 0 0.661333 0.213333 0.981334 0.213333 0.341333 0 0.576 0.234667 0.896 0.362667l0.981333 0.32 1.002667 0.448 0.874666 0.448 0.896 0.448 0.874667 0.554666 0.896 0.576 0.768 0.661334c0.256 0.234667 0.426667 0.533333 0.661333 0.789333 0.234667 0.234667 0.554667 0.512 0.768 0.768l0.661334 0.789333 0.554666 0.789334c0.213333 0.277333 0.362667 0.597333 0.554667 0.896l0.554667 0.896c0.170667 0.298667 0.405333 0.576 0.554666 0.874666l0.426667 0.896c0.149333 0.32 0.213333 0.704 0.341333 1.024s0.341333 0.554667 0.448 0.874667c0.106667 0.341333 0.213333 0.682667 0.213334 1.024 0 0.32 0.341333 0.661333 0.341333 1.002667s0.213333 0.661333 0.213333 1.002666 0.106667 0.661333 0.106667 1.002667 0.128 0.768 0.128 1.109333l24.64-1.109333v-1.002667c0-0.32-0.128-0.576-0.128-0.896v-1.002666c0-0.32-0.106667-0.576-0.106667-0.896 0-0.32-0.106667-0.682667-0.106666-1.002667s-0.106667-0.682667-0.106667-1.002667-0.213333-0.576-0.213333-0.896c0-0.32-0.128-0.576-0.128-0.896 0-0.32-0.213333-0.704-0.213334-1.002666 0-0.32-0.32-0.597333-0.32-0.896 0-0.32-0.213333-0.597333-0.213333-0.896 0-0.32-0.234667-0.704-0.234667-1.002667 0-0.32-0.341333-0.597333-0.341333-0.896 0-0.32-0.213333-0.597333-0.32-0.896l-0.448-0.896-0.341333-0.896-0.426667-0.896-0.448-0.789333-0.426667-0.896-0.448-0.768c-0.170667-0.277333-0.277333-0.64-0.448-0.896l-0.554666-0.789334-0.554667-0.789333a32.448 32.448 0 0 0-0.554667-0.768l-0.554666-0.789333-0.64-0.789334-0.576-0.661333-0.64-0.789333-0.682667-0.661334a32.853333 32.853333 0 0 0-0.661333-0.682666l-0.661334-0.661334-0.768-0.682666a50.069333 50.069333 0 0 0-3.754666-2.56c-0.661333-0.405333-1.322667-0.746667-2.005334-1.109334-0.661333-0.384-1.28-0.789333-1.984-1.130666a54.122667 54.122667 0 0 0-4.202666-1.898667c-0.704-0.277333-1.493333-0.533333-2.197334-0.789333l-2.218666-0.661334c-0.725333-0.213333-1.472-0.490667-2.218667-0.661333-0.725333-0.192-1.450667-0.298667-2.197333-0.448-0.746667-0.149333-1.557333-0.341333-2.325334-0.448-0.746667-0.128-1.450667-0.213333-2.197333-0.213333-0.768 0-1.557333-0.234667-2.346667-0.234667-0.746667 0-1.536-0.128-2.304-0.128h-2.218666c-0.746667 0-1.536 0.128-2.304 0.128h-3.093334c-1.024 0-2.090667 0.213333-3.093333 0.213333-1.024 0-2.090667 0.106667-3.093333 0.213334-1.024 0.149333-1.984 0.384-2.986667 0.576-1.024 0.170667-1.984 0.32-2.986667 0.554666-1.002667 0.213333-2.005333 0.512-2.986666 0.789334-0.981333 0.277333-2.005333 0.554667-2.986667 0.896-0.96 0.32-1.92 0.725333-2.858667 1.109333-0.405333 0.149333-0.746667 0.277333-1.109333 0.448-0.384 0.170667-0.853333 0.362667-1.216 0.554667l-1.109333 0.554666c-0.362667 0.213333-0.64 0.469333-1.002667 0.682667-0.341333 0.213333-0.746667 0.32-1.088 0.554667-0.362667 0.213333-0.661333 0.554667-1.002667 0.789333s-0.768 0.426667-1.109333 0.661333c-0.32 0.256-0.554667 0.512-0.874667 0.789334-0.32 0.256-0.682667 0.618667-1.002666 0.896-0.32 0.277333-0.576 0.490667-0.874667 0.789333-0.298667 0.277333-0.704 0.576-1.002667 0.874667-0.298667 0.298667-0.490667 0.597333-0.768 0.896-0.277333 0.32-0.64 0.682667-0.896 1.002666l-0.768 1.024c-0.256 0.32-0.533333 0.64-0.768 1.002667-0.256 0.341333-0.426667 0.64-0.661333 1.002667-0.426667 0.64-0.853333 1.322667-1.216 2.005333-0.384 0.682667-0.789333 1.301333-1.109333 2.026667-0.32 0.704-0.597333 1.493333-0.874667 2.218666-0.277333 0.746667-0.554667 1.386667-0.789333 2.133334-0.213333 0.746667-0.384 1.578667-0.554667 2.346666-0.170667 0.768-0.32 1.472-0.426667 2.24a16.085333 16.085333 0 0 0-0.213333 2.346667c0 0.768-0.128 1.557333-0.128 2.346667v1.792c0 0.298667 0.106667 0.597333 0.106667 0.896v0.896c0 0.277333 0.106667 0.490667 0.106666 0.768 0 0.298667 0.128 0.618667 0.128 0.896 0 0.298667 0.213333 0.597333 0.213334 0.896 0 0.298667 0.106667 0.618667 0.106666 0.896 0 0.298667 0.213333 0.618667 0.213334 0.896 0 0.277333 0.213333 0.490667 0.213333 0.789333 0 0.277333 0.234667 0.597333 0.234667 0.896 0 0.277333 0.341333 0.490667 0.341333 0.768 0 0.277333 0.213333 0.64 0.213333 0.896 0 0.277333 0.341333 0.512 0.341334 0.789333 0 0.277333 0.213333 0.512 0.32 0.789334 0.128 0.256 0.213333 0.618667 0.341333 0.874666l0.32 0.789334 0.448 0.789333 0.426667 0.789333 0.448 0.768 0.448 0.682667c0.170667 0.234667 0.277333 0.533333 0.426666 0.768 0.170667 0.256 0.405333 0.426667 0.576 0.682667 0.170667 0.234667 0.256 0.533333 0.426667 0.768l0.554667 0.682666 0.554666 0.661334c0.213333 0.213333 0.362667 0.448 0.554667 0.682666l0.661333 0.661334c0.213333 0.213333 0.362667 0.469333 0.554667 0.682666 0.213333 0.213333 0.448 0.341333 0.661333 0.554667 0.213333 0.213333 0.448 0.362667 0.661334 0.554667l0.661333 0.682666c1.024 0.746667 2.048 1.408 3.093333 2.112a62.997333 62.997333 0 0 0 6.634667 3.904c1.130667 0.597333 2.261333 1.173333 3.413333 1.685334 1.173333 0.512 2.346667 0.896 3.562667 1.344 1.173333 0.426667 2.410667 0.853333 3.626667 1.237333 1.237333 0.362667 2.432 0.810667 3.648 1.109333 1.237333 0.298667 2.517333 0.554667 3.776 0.789334 10.24 2.56 16.768 4.352 19.669333 5.354666 0.426667 0.128 0.896 0.192 1.322667 0.341334 0.405333 0.149333 0.810667 0.384 1.216 0.554666 0.384 0.170667 0.704 0.362667 1.088 0.554667 0.405333 0.213333 0.853333 0.448 1.216 0.682667l1.109333 0.661333c0.362667 0.256 0.64 0.512 1.002667 0.789333 0.341333 0.277333 0.661333 0.597333 0.981333 0.896 0.341333 0.298667 0.704 0.576 1.002667 0.896 0.213333 0.256 0.362667 0.512 0.554666 0.768l0.554667 0.789334a10.24 10.24 0 0 1 0.426667 0.896c0.149333 0.298667 0.448 0.682667 0.448 1.002666s0.213333 0.576 0.213333 0.896c0 0.32 0.234667 0.682667 0.234667 1.002667 0 0.341333 0.106667 0.682667 0.106666 1.002667v1.002666c0 0.298667-0.106667 0.618667-0.106666 0.917334 0 0.277333-0.106667 0.597333-0.106667 0.874666 0 0.298667-0.106667 0.512-0.106667 0.789334 0 0.298667-0.213333 0.618667-0.213333 0.896 0 0.277333-0.234667 0.512-0.234667 0.789333 0 0.277333-0.341333 0.618667-0.341333 0.896 0 0.256-0.213333 0.512-0.32 0.768l-0.341333 0.789333a17.493333 17.493333 0 0 1-0.426667 0.789334c-0.170667 0.234667-0.405333 0.426667-0.554667 0.661333-0.170667 0.234667-0.277333 0.554667-0.448 0.789333a15.082667 15.082667 0 0 1-0.554666 0.661334c-0.192 0.213333-0.448 0.362667-0.661334 0.554666-0.213333 0.213333-0.341333 0.490667-0.554666 0.682667a14.826667 14.826667 0 0 1-0.661334 0.554667c-0.213333 0.192-0.533333 0.277333-0.768 0.448z m52.053334-98.496v122.410666H682.666667v-20.778666h-61.226667v-101.632h-24.746667z" fill="#005BFF" p-id="7947"></path></svg>